<svg width="179" height="179" viewBox="0 0 179 179" fill="none" xmlns="http://www.w3.org/2000/svg">
<g clip-path="url(#clip0_80_1984)">
<path d="M89.1517 156.155C87.6194 156.155 86.3657 154.901 86.3657 153.369V130.942C86.3657 129.409 87.6194 128.156 89.1517 128.156C90.684 128.156 91.9376 129.409 91.9376 130.942V153.369C91.9376 154.901 90.684 156.155 89.1517 156.155ZM79.1221 179H58.9237C57.3914 179 56.1377 177.746 56.1377 176.214C56.1377 174.682 57.3914 173.428 58.9237 173.428H79.1221C80.6544 173.428 81.9081 174.682 81.9081 176.214C81.9081 177.746 80.6544 179 79.1221 179ZM118.962 179H98.7633C97.231 179 95.9773 177.746 95.9773 176.214C95.9773 174.682 97.231 173.428 98.7633 173.428H118.962C120.494 173.428 121.748 174.682 121.748 176.214C121.748 177.746 120.494 179 118.962 179Z" fill="#393939"/>
<path d="M66.1672 178.443C65.4707 178.443 64.7743 178.164 64.2171 177.607C63.1027 176.493 63.1027 174.821 64.2171 173.707L87.2015 150.722C88.3159 149.608 89.9875 149.608 91.1019 150.722L114.086 173.707C115.201 174.821 115.201 176.493 114.086 177.607C112.972 178.721 111.3 178.721 110.186 177.607L89.1517 156.573L68.1174 177.607C67.5602 178.164 66.8637 178.443 66.1672 178.443Z" fill="#393939"/>
<path d="M7.24359 2.78589H171.617C173.846 2.78589 175.518 4.59678 175.518 6.68628V126.902C175.518 129.131 173.707 130.802 171.617 130.802H7.24359C5.1541 130.942 3.3432 129.131 3.3432 127.041V6.68628C3.3432 4.59678 5.1541 2.78589 7.24359 2.78589Z" fill="#EAEAEA"/>
<path d="M171.617 133.727H7.24358C3.62179 133.727 0.55719 130.663 0.55719 127.041V6.68638C0.55719 3.06459 3.62179 0 7.24358 0H171.617C175.378 0 178.304 3.06459 178.304 6.68638V126.902C178.443 130.663 175.378 133.727 171.617 133.727ZM7.24358 5.57198C6.68638 5.57198 6.12918 6.12918 6.12918 6.68638V126.902C6.12918 127.598 6.68638 128.156 7.24358 128.156H171.617C172.314 128.156 172.732 127.598 172.732 127.041V6.68638C172.732 5.98988 172.175 5.57198 171.617 5.57198H7.24358Z" fill="#393939"/>
<path d="M13.5121 13.512H164.931V120.355H13.5121V13.512Z" fill="#EAEAEA"/>
<path d="M164.931 123.001H13.5121C11.9798 123.001 10.7261 121.748 10.7261 120.215V13.5121C10.7261 11.9798 11.9798 10.7261 13.5121 10.7261H164.931C166.463 10.7261 167.717 11.9798 167.717 13.5121V120.355C167.717 121.748 166.463 123.001 164.931 123.001ZM16.2981 117.429H162.145V16.2981H16.2981V117.429Z" fill="#393939"/>
<path d="M153.787 100.574H125.648C124.116 100.574 122.862 99.3206 122.862 97.7883C122.862 96.256 124.116 95.0023 125.648 95.0023H153.787C155.319 95.0023 156.573 96.256 156.573 97.7883C156.573 99.3206 155.319 100.574 153.787 100.574ZM136.096 112.554H125.648C124.116 112.554 122.862 111.3 122.862 109.768C122.862 108.236 124.116 106.982 125.648 106.982H136.096C137.628 106.982 138.882 108.236 138.882 109.768C138.882 111.3 137.628 112.554 136.096 112.554ZM83.0225 94.4451C82.326 94.4451 81.6295 94.1665 81.0723 93.6093L43.6008 56.277C42.4864 55.1626 42.4864 53.491 43.6008 52.3766C44.7152 51.2622 46.3868 51.2622 47.5012 52.3766L84.8334 89.7089C85.9478 90.8233 85.9478 92.4949 84.8334 93.6093C84.4155 94.3058 83.719 94.4451 83.0225 94.4451ZM89.1517 94.0272C88.7338 94.0272 88.1766 93.8879 87.7587 93.6093C86.3657 92.9128 85.9478 91.1019 86.6443 89.8482L114.783 39.979C115.479 38.586 117.29 38.1681 118.544 38.8646C119.937 39.5611 120.355 41.3719 119.658 42.6256L91.6591 92.6342C91.1019 93.47 90.1268 94.0272 89.1517 94.0272Z" fill="#393939"/>
<path d="M50.1478 99.4599C49.4513 99.4599 48.7548 99.1813 48.1976 98.6241C47.0832 97.5097 47.0832 95.6988 48.1976 94.7237L83.5798 60.1774C84.6941 59.063 86.505 59.063 87.4801 60.1774C88.5945 61.2918 88.5945 63.1027 87.4801 64.0778L52.098 98.6241C51.5408 99.1813 50.8443 99.4599 50.1478 99.4599ZM131.22 61.4311H94.3058C92.7735 61.4311 91.5198 60.1774 91.5198 58.6451C91.5198 57.1128 92.7735 55.8591 94.3058 55.8591H131.081C132.613 55.8591 133.867 57.1128 133.867 58.6451C133.867 60.1774 132.753 61.4311 131.22 61.4311Z" fill="#393939"/>
<path d="M36.6358 50.8443C36.6358 52.2112 37.1789 53.5222 38.1454 54.4888C39.112 55.4553 40.423 55.9984 41.7899 55.9984C43.1569 55.9984 44.4678 55.4553 45.4344 54.4888C46.401 53.5222 46.944 52.2112 46.944 50.8443C46.944 49.4773 46.401 48.1664 45.4344 47.1998C44.4678 46.2332 43.1569 45.6902 41.7899 45.6902C40.423 45.6902 39.112 46.2332 38.1454 47.1998C37.1789 48.1664 36.6358 49.4773 36.6358 50.8443Z" fill="#EAEAEA"/>
<path d="M41.7899 58.7844C37.4716 58.7844 33.8499 55.3019 33.8499 50.8444C33.8499 46.5261 37.3323 42.9043 41.7899 42.9043C46.1082 42.9043 49.73 46.3868 49.73 50.8444C49.73 55.3019 46.2475 58.7844 41.7899 58.7844ZM41.7899 48.6156C40.5362 48.6156 39.4218 49.5907 39.4218 50.9837C39.4218 52.2374 40.3969 53.3518 41.7899 53.3518C43.0436 53.3518 44.158 52.3767 44.158 50.9837C44.158 49.5907 43.1829 48.6156 41.7899 48.6156Z" fill="#393939"/>
<path d="M81.2117 95.4202C81.2117 96.097 81.345 96.7673 81.604 97.3926C81.8631 98.0179 82.2427 98.5861 82.7213 99.0647C83.1999 99.5433 83.7681 99.9229 84.3934 100.182C85.0187 100.441 85.6889 100.574 86.3658 100.574C87.0426 100.574 87.7129 100.441 88.3382 100.182C88.9635 99.9229 89.5317 99.5433 90.0103 99.0647C90.4889 98.5861 90.8685 98.0179 91.1275 97.3926C91.3866 96.7673 91.5199 96.097 91.5199 95.4202C91.5199 94.7434 91.3866 94.0731 91.1275 93.4478C90.8685 92.8225 90.4889 92.2543 90.0103 91.7757C89.5317 91.2971 88.9635 90.9175 88.3382 90.6584C87.7129 90.3994 87.0426 90.2661 86.3658 90.2661C85.6889 90.2661 85.0187 90.3994 84.3934 90.6584C83.7681 90.9175 83.1999 91.2971 82.7213 91.7757C82.2427 92.2543 81.8631 92.8225 81.604 93.4478C81.345 94.0731 81.2117 94.7434 81.2117 95.4202Z" fill="#EAEAEA"/>
<path d="M86.3658 103.36C82.0475 103.36 78.4257 99.8779 78.4257 95.4203C78.4257 90.9627 81.9082 87.4802 86.3658 87.4802C90.6841 87.4802 94.3059 90.9627 94.3059 95.4203C94.3059 99.8779 90.8234 103.36 86.3658 103.36ZM86.3658 93.1915C85.1121 93.1915 83.9977 94.1666 83.9977 95.5596C83.9977 96.9526 84.9728 97.9277 86.3658 97.9277C87.6195 97.9277 88.7339 96.9526 88.7339 95.5596C88.7339 94.1666 87.7588 93.1915 86.3658 93.1915Z" fill="#393939"/>
<path d="M84.137 58.5059C84.137 59.8728 84.68 61.1838 85.6466 62.1504C86.6132 63.117 87.9241 63.66 89.2911 63.66C90.658 63.66 91.969 63.117 92.9356 62.1504C93.9021 61.1838 94.4452 59.8728 94.4452 58.5059C94.4452 57.1389 93.9021 55.828 92.9356 54.8614C91.969 53.8948 90.658 53.3518 89.2911 53.3518C87.9241 53.3518 86.6132 53.8948 85.6466 54.8614C84.68 55.828 84.137 57.1389 84.137 58.5059Z" fill="#EAEAEA"/>
<path d="M89.2911 66.4458C84.9728 66.4458 81.351 62.9633 81.351 58.5057C81.351 54.1875 84.8335 50.5657 89.2911 50.5657C93.7487 50.5657 97.2311 54.0482 97.2311 58.5057C97.0918 62.9633 93.6094 66.4458 89.2911 66.4458ZM89.2911 56.2769C88.0374 56.2769 86.923 57.252 86.923 58.645C86.923 59.8987 87.8981 61.0131 89.2911 61.0131C90.6841 61.0131 91.6592 60.038 91.6592 58.645C91.5199 57.252 90.5448 56.2769 89.2911 56.2769Z" fill="#393939"/>
<path d="M130.941 58.5059C130.941 59.8728 131.484 61.1838 132.451 62.1504C133.418 63.117 134.729 63.66 136.096 63.66C137.463 63.66 138.773 63.117 139.74 62.1504C140.707 61.1838 141.25 59.8728 141.25 58.5059C141.25 57.1389 140.707 55.828 139.74 54.8614C138.773 53.8948 137.463 53.3518 136.096 53.3518C134.729 53.3518 133.418 53.8948 132.451 54.8614C131.484 55.828 130.941 57.1389 130.941 58.5059Z" fill="#EAEAEA"/>
<path d="M136.096 66.4458C131.777 66.4458 128.155 62.9633 128.155 58.5057C128.155 54.1875 131.638 50.5657 136.096 50.5657C140.553 50.5657 144.036 54.0482 144.036 58.5057C144.036 62.9633 140.553 66.4458 136.096 66.4458ZM136.096 56.2769C134.842 56.2769 133.727 57.252 133.727 58.645C133.727 59.8987 134.703 61.0131 136.096 61.0131C137.489 61.0131 138.464 59.8987 138.464 58.645C138.464 57.252 137.349 56.2769 136.096 56.2769Z" fill="#393939"/>
<path d="M114.226 36.2178C114.226 37.5848 114.769 38.8957 115.735 39.8623C116.702 40.8289 118.013 41.3719 119.38 41.3719C120.747 41.3719 122.058 40.8289 123.024 39.8623C123.991 38.8957 124.534 37.5848 124.534 36.2178C124.534 34.8509 123.991 33.5399 123.024 32.5733C122.058 31.6067 120.747 31.0637 119.38 31.0637C118.013 31.0637 116.702 31.6067 115.735 32.5733C114.769 33.5399 114.226 34.8509 114.226 36.2178Z" fill="#EAEAEA"/>
<path d="M119.38 44.158C115.061 44.158 111.44 40.6755 111.44 36.2179C111.44 31.7603 114.922 28.2778 119.38 28.2778C123.837 28.2778 127.32 31.8996 127.32 36.2179C127.32 40.5362 123.837 44.158 119.38 44.158ZM119.38 33.9891C118.126 33.9891 117.012 34.9642 117.012 36.3572C117.012 37.7502 117.987 38.7253 119.38 38.7253C120.773 38.7253 121.748 37.6109 121.748 36.2179C121.748 34.8249 120.773 33.9891 119.38 33.9891Z" fill="#393939"/>
<path d="M41.7899 100.574C41.7899 101.941 42.3329 103.252 43.2995 104.219C44.2661 105.185 45.577 105.728 46.944 105.728C48.3109 105.728 49.6219 105.185 50.5885 104.219C51.555 103.252 52.0981 101.941 52.0981 100.574C52.0981 99.2073 51.555 97.8963 50.5885 96.9298C49.6219 95.9632 48.3109 95.4202 46.944 95.4202C45.577 95.4202 44.2661 95.9632 43.2995 96.9298C42.3329 97.8963 41.7899 99.2073 41.7899 100.574Z" fill="#EAEAEA"/>
<path d="M46.944 108.514C42.6257 108.514 39.0039 105.032 39.0039 100.574C39.0039 96.2561 42.4864 92.6343 46.944 92.6343C51.4016 92.6343 54.884 96.1168 54.884 100.574C54.884 104.893 51.2623 108.514 46.944 108.514ZM46.944 98.3456C45.6903 98.3456 44.5759 99.3207 44.5759 100.714C44.5759 102.107 45.551 103.082 46.944 103.082C48.337 103.082 49.3121 102.107 49.3121 100.714C49.3121 99.3207 48.1977 98.3456 46.944 98.3456Z" fill="#393939"/>
</g>
<defs>
<clipPath id="clip0_80_1984">
<rect width="179" height="179" fill="white"/>
</clipPath>
</defs>
</svg>
