<?xml version="1.0" encoding="UTF-8"?>
<!DOCTYPE svg PUBLIC "-//W3C//DTD SVG 1.1//EN" "http://www.w3.org/Graphics/SVG/1.1/DTD/svg11.dtd">
<svg xmlns="http://www.w3.org/2000/svg" version="1.1" width="512px" height="512px" style="shape-rendering:geometricPrecision; text-rendering:geometricPrecision; image-rendering:optimizeQuality; fill-rule:evenodd; clip-rule:evenodd" xmlns:xlink="http://www.w3.org/1999/xlink">
<g><path style="opacity:0.922" fill="#000000" d="M 66.5,4.5 C 79.101,4.61695 87.7677,10.4503 92.5,22C 138.832,22.5 185.165,22.6667 231.5,22.5C 231.334,18.1539 231.501,13.8206 232,9.5C 232.465,8.06919 233.299,6.90252 234.5,6C 241.399,4.86857 248.399,4.36857 255.5,4.5C 262.601,4.36857 269.601,4.86857 276.5,6C 277.701,6.90252 278.535,8.06919 279,9.5C 279.499,13.8206 279.666,18.1539 279.5,22.5C 325.835,22.6667 372.168,22.5 418.5,22C 426.439,5.35288 438.772,1.01954 455.5,9C 468.034,21.0185 468.701,33.6852 457.5,47C 444.423,55.3617 432.589,53.8617 422,42.5C 420.688,40.0448 419.522,37.5448 418.5,35C 387.167,34.3333 355.833,34.3333 324.5,35C 382.267,58.1021 420.767,99.2688 440,158.5C 444.778,174.836 447.278,191.502 447.5,208.5C 452.179,208.334 456.845,208.501 461.5,209C 463.333,209.5 464.5,210.667 465,212.5C 465.667,225.833 465.667,239.167 465,252.5C 464.167,253.333 463.333,254.167 462.5,255C 448.5,255.667 434.5,255.667 420.5,255C 419.107,253.829 418.273,252.329 418,250.5C 417.056,237.097 417.389,223.764 419,210.5C 419.75,209.874 420.584,209.374 421.5,209C 426.155,208.501 430.821,208.334 435.5,208.5C 430.874,141.46 399.874,90.96 342.5,57C 322.757,46.314 301.757,39.4807 279.5,36.5C 279.666,40.5138 279.499,44.5138 279,48.5C 278.626,49.4162 278.126,50.2496 277.5,51C 270.267,52.1333 262.934,52.6333 255.5,52.5C 248.066,52.6333 240.733,52.1333 233.5,51C 232.874,50.2496 232.374,49.4162 232,48.5C 231.501,44.5138 231.334,40.5138 231.5,36.5C 166.489,47.3646 119.655,82.3646 91,141.5C 81.8201,162.899 76.6534,185.232 75.5,208.5C 80.1785,208.334 84.8452,208.501 89.5,209C 90.4162,209.374 91.2496,209.874 92,210.5C 93.6107,223.764 93.944,237.097 93,250.5C 92.7265,252.329 91.8932,253.829 90.5,255C 76.5,255.667 62.5,255.667 48.5,255C 47.6667,254.167 46.8333,253.333 46,252.5C 45.3333,239.167 45.3333,225.833 46,212.5C 46.5,210.667 47.6667,209.5 49.5,209C 54.1548,208.501 58.8215,208.334 63.5,208.5C 67.6886,134.916 101.689,80.0825 165.5,44C 172.384,40.7246 179.384,37.7246 186.5,35C 155.167,34.3333 123.833,34.3333 92.5,35C 85.1111,51.3569 73.1111,56.0236 56.5,49C 45.1097,39.931 42.6097,28.7644 49,15.5C 53.5938,9.63204 59.4271,5.96537 66.5,4.5 Z M 66.5,17.5 C 78.6959,18.2325 82.5292,24.2325 78,35.5C 70.498,41.5717 64.1646,40.5717 59,32.5C 57.2892,25.2543 59.7892,20.2543 66.5,17.5 Z M 244.5,17.5 C 251.833,17.5 259.167,17.5 266.5,17.5C 266.5,24.8333 266.5,32.1667 266.5,39.5C 259.167,39.5 251.833,39.5 244.5,39.5C 244.5,32.1667 244.5,24.8333 244.5,17.5 Z M 438.5,17.5 C 448.828,17.3258 453.328,22.3258 452,32.5C 447.733,39.8755 441.899,41.3755 434.5,37C 428.373,28.9236 429.706,22.4236 438.5,17.5 Z M 58.5,221.5 C 65.8333,221.5 73.1667,221.5 80.5,221.5C 80.5,228.833 80.5,236.167 80.5,243.5C 73.1667,243.5 65.8333,243.5 58.5,243.5C 58.5,236.167 58.5,228.833 58.5,221.5 Z M 430.5,221.5 C 437.833,221.5 445.167,221.5 452.5,221.5C 452.5,228.833 452.5,236.167 452.5,243.5C 445.167,243.5 437.833,243.5 430.5,243.5C 430.5,236.167 430.5,228.833 430.5,221.5 Z"/></g>
<g><path style="opacity:0.91" fill="#000000" d="M 241.5,74.5 C 245.808,73.7353 248.642,75.4019 250,79.5C 250.667,143.5 250.667,207.5 250,271.5C 247.548,274.821 244.382,277.321 240.5,279C 231.463,288.259 230.296,298.426 237,309.5C 246.051,319.245 256.551,321.078 268.5,315C 279.734,305.103 281.234,293.936 273,281.5C 270.108,278.943 266.941,276.776 263.5,275C 262.299,274.097 261.465,272.931 261,271.5C 260.333,207.5 260.333,143.5 261,79.5C 263.44,74.2096 267.107,73.2096 272,76.5C 309,150.5 346,224.5 383,298.5C 383.667,300.833 383.667,303.167 383,305.5C 367.295,337.078 351.461,368.578 335.5,400C 342.833,400.333 350.167,400.667 357.5,401C 358.333,401.833 359.167,402.667 360,403.5C 360.667,417.167 360.667,430.833 360,444.5C 359.626,445.416 359.126,446.25 358.5,447C 353.511,447.499 348.511,447.666 343.5,447.5C 343.667,465.503 343.5,483.503 343,501.5C 339.46,507.683 335.46,508.017 331,502.5C 330.5,484.17 330.333,465.836 330.5,447.5C 280.5,447.5 230.5,447.5 180.5,447.5C 180.667,465.836 180.5,484.17 180,502.5C 175.491,507.994 171.491,507.661 168,501.5C 167.5,483.503 167.333,465.503 167.5,447.5C 162.489,447.666 157.489,447.499 152.5,447C 151.874,446.25 151.374,445.416 151,444.5C 150.333,430.833 150.333,417.167 151,403.5C 151.833,402.667 152.667,401.833 153.5,401C 160.833,400.667 168.167,400.333 175.5,400C 159.539,368.578 143.705,337.078 128,305.5C 127.333,303.167 127.333,300.833 128,298.5C 165,224.5 202,150.5 239,76.5C 239.995,75.9341 240.828,75.2674 241.5,74.5 Z M 236.5,109.5 C 237.665,161.332 237.832,213.332 237,265.5C 219.23,279.312 215.563,296.312 226,316.5C 240.511,333.096 257.344,335.93 276.5,325C 290.32,313.198 294.153,298.698 288,281.5C 284.766,274.931 280.099,269.598 274,265.5C 273.333,213.5 273.333,161.5 274,109.5C 306.039,173.744 338.205,237.911 370.5,302C 354.469,334.728 338.136,367.395 321.5,400C 277.496,400.833 233.496,400.667 189.5,399.5C 173.295,366.922 156.961,334.422 140.5,302C 172.91,238.012 204.91,173.846 236.5,109.5 Z M 162.5,413.5 C 224.5,413.5 286.5,413.5 348.5,413.5C 348.5,420.833 348.5,428.167 348.5,435.5C 286.5,435.5 224.5,435.5 162.5,435.5C 162.5,428.167 162.5,420.833 162.5,413.5 Z"/></g>
</svg>
