<svg width="305" height="70" viewBox="0 0 305 70" fill="none" xmlns="http://www.w3.org/2000/svg">
<path d="M17 60V3L59 60" stroke="#393939" stroke-width="5" stroke-linecap="round" stroke-linejoin="round"/>
<path d="M45 3V60L3 3" stroke="#393939" stroke-width="5" stroke-linecap="round" stroke-linejoin="round"/>
<path d="M73.1692 60V44.84C73.1692 44.0133 73.1426 43.1733 73.0892 42.32C73.0359 41.4667 72.9559 40.6267 72.8492 39.8H77.6892L78.0892 43.8H77.6092C78.2492 42.3867 79.1959 41.3067 80.4492 40.56C81.7026 39.7867 83.1559 39.4 84.8092 39.4C87.1826 39.4 88.9692 40.0667 90.1692 41.4C91.3692 42.7333 91.9692 44.8133 91.9692 47.64V60H86.9692V47.88C86.9692 46.2533 86.6492 45.0933 86.0092 44.4C85.3959 43.68 84.4626 43.32 83.2092 43.32C81.6626 43.32 80.4359 43.8 79.5292 44.76C78.6226 45.72 78.1692 47 78.1692 48.6V60H73.1692ZM97.2708 60V39.8H102.271V60H97.2708ZM96.9908 36V31.12H102.551V36H96.9908ZM107.7 60V30.56H112.7V48.4H112.78L120.98 39.8H127.02L116.82 50.48L116.86 48.48L127.74 60H121.54L112.78 50.96H112.7V60H107.7ZM129.771 60V30.56H134.771V43.84H134.211C134.824 42.4 135.771 41.3067 137.051 40.56C138.331 39.7867 139.797 39.4 141.451 39.4C143.851 39.4 145.637 40.08 146.811 41.44C147.984 42.7733 148.571 44.8133 148.571 47.56V60H143.571V47.8C143.571 46.2267 143.264 45.0933 142.651 44.4C142.064 43.68 141.117 43.32 139.811 43.32C138.291 43.32 137.064 43.8 136.131 44.76C135.224 45.6933 134.771 46.9467 134.771 48.52V60H129.771ZM153.872 60V39.8H158.872V60H153.872ZM153.592 36V31.12H159.152V36H153.592ZM164.302 60V30.56H169.302V60H164.302ZM182.532 60.4C180.772 60.4 179.225 59.9867 177.892 59.16C176.558 58.3067 175.518 57.0933 174.772 55.52C174.025 53.9467 173.652 52.0667 173.652 49.88C173.652 47.6933 174.025 45.8267 174.772 44.28C175.518 42.7067 176.558 41.5067 177.892 40.68C179.225 39.8267 180.772 39.4 182.532 39.4C184.238 39.4 185.732 39.8267 187.012 40.68C188.318 41.5067 189.185 42.6267 189.612 44.04H189.172L189.612 39.8H194.412C194.332 40.6267 194.252 41.4667 194.172 42.32C194.118 43.1733 194.092 44.0133 194.092 44.84V60H189.132L189.092 55.84H189.572C189.145 57.2267 188.278 58.3333 186.972 59.16C185.665 59.9867 184.185 60.4 182.532 60.4ZM183.932 56.56C185.505 56.56 186.772 56.0133 187.732 54.92C188.692 53.8 189.172 52.12 189.172 49.88C189.172 47.64 188.692 45.9733 187.732 44.88C186.772 43.7867 185.505 43.24 183.932 43.24C182.358 43.24 181.092 43.7867 180.132 44.88C179.172 45.9733 178.692 47.64 178.692 49.88C178.692 52.12 179.158 53.8 180.092 54.92C181.052 56.0133 182.332 56.56 183.932 56.56ZM199.536 60V44.84C199.536 44.0133 199.51 43.1733 199.456 42.32C199.403 41.4667 199.323 40.6267 199.216 39.8H204.056L204.456 43.8H203.976C204.616 42.3867 205.563 41.3067 206.816 40.56C208.07 39.7867 209.523 39.4 211.176 39.4C213.55 39.4 215.336 40.0667 216.536 41.4C217.736 42.7333 218.336 44.8133 218.336 47.64V60H213.336V47.88C213.336 46.2533 213.016 45.0933 212.376 44.4C211.763 43.68 210.83 43.32 209.576 43.32C208.03 43.32 206.803 43.8 205.896 44.76C204.99 45.72 204.536 47 204.536 48.6V60H199.536ZM231.438 60.4C229.678 60.4 228.131 59.9867 226.798 59.16C225.465 58.3067 224.425 57.0933 223.678 55.52C222.931 53.9467 222.558 52.0667 222.558 49.88C222.558 47.6933 222.931 45.8267 223.678 44.28C224.425 42.7067 225.465 41.5067 226.798 40.68C228.131 39.8267 229.678 39.4 231.438 39.4C233.145 39.4 234.638 39.8267 235.918 40.68C237.225 41.5067 238.091 42.6267 238.518 44.04H238.078L238.518 39.8H243.318C243.238 40.6267 243.158 41.4667 243.078 42.32C243.025 43.1733 242.998 44.0133 242.998 44.84V60H238.038L237.998 55.84H238.478C238.051 57.2267 237.185 58.3333 235.878 59.16C234.571 59.9867 233.091 60.4 231.438 60.4ZM232.838 56.56C234.411 56.56 235.678 56.0133 236.638 54.92C237.598 53.8 238.078 52.12 238.078 49.88C238.078 47.64 237.598 45.9733 236.638 44.88C235.678 43.7867 234.411 43.24 232.838 43.24C231.265 43.24 229.998 43.7867 229.038 44.88C228.078 45.9733 227.598 47.64 227.598 49.88C227.598 52.12 228.065 53.8 228.998 54.92C229.958 56.0133 231.238 56.56 232.838 56.56ZM248.443 60V44.84C248.443 44.0133 248.416 43.1733 248.363 42.32C248.309 41.4667 248.229 40.6267 248.123 39.8H252.963L253.363 43.8H252.883C253.523 42.3867 254.469 41.3067 255.723 40.56C256.976 39.7867 258.429 39.4 260.083 39.4C262.456 39.4 264.243 40.0667 265.443 41.4C266.643 42.7333 267.243 44.8133 267.243 47.64V60H262.243V47.88C262.243 46.2533 261.923 45.0933 261.283 44.4C260.669 43.68 259.736 43.32 258.483 43.32C256.936 43.32 255.709 43.8 254.803 44.76C253.896 45.72 253.443 47 253.443 48.6V60H248.443ZM280.384 60.4C278.624 60.4 277.064 59.9867 275.704 59.16C274.371 58.3067 273.331 57.0933 272.584 55.52C271.838 53.9467 271.464 52.0667 271.464 49.88C271.464 47.6933 271.838 45.8267 272.584 44.28C273.331 42.7067 274.371 41.5067 275.704 40.68C277.064 39.8267 278.624 39.4 280.384 39.4C282.064 39.4 283.544 39.8133 284.824 40.64C286.131 41.44 286.998 42.5333 287.424 43.92H286.904V30.56H291.904V60H286.984V55.72H287.464C287.038 57.16 286.171 58.3067 284.864 59.16C283.584 59.9867 282.091 60.4 280.384 60.4ZM281.784 56.56C283.358 56.56 284.624 56.0133 285.584 54.92C286.544 53.8 287.024 52.12 287.024 49.88C287.024 47.64 286.544 45.9733 285.584 44.88C284.624 43.7867 283.358 43.24 281.784 43.24C280.211 43.24 278.931 43.7867 277.944 44.88C276.984 45.9733 276.504 47.64 276.504 49.88C276.504 52.12 276.984 53.8 277.944 54.92C278.931 56.0133 280.211 56.56 281.784 56.56ZM296.789 60V54.44H302.389V60H296.789Z" fill="#0F400F"/>
</svg>
