<svg width="183" height="183" viewBox="0 0 183 183" fill="none" xmlns="http://www.w3.org/2000/svg">
<path d="M59.0907 86.4452C59.0907 83.1624 55.8984 79.6758 50.3742 79.6758C44.1709 79.6758 37.3562 84.2265 36.3147 93.3051C35.2507 102.474 40.956 106.55 46.7065 106.55C52.4571 106.55 55.4683 104.308 58.5473 101.32C55.8984 97.9916 52.4798 99.5312 51.8232 99.8708C51.0987 100.233 50.1705 100.731 48.2687 100.731C46.05 100.731 43.786 99.7349 43.786 95.5918C58.004 94.1881 59.0907 89.728 59.0907 86.4452ZM52.0496 86.9885C51.959 88.0074 51.5515 89.7506 44.352 90.7242C45.8689 85.3358 48.7668 84.9283 50.1026 84.9283C51.3478 84.9283 52.1402 85.9018 52.0496 86.9885ZM27.9605 87.8715C27.9605 87.8715 24.9041 97.4709 24.6551 98.2633C24.5645 97.4483 22.3231 80.2192 22.3231 80.2192C17.1159 80.2192 14.3312 83.9321 12.8596 87.8489C12.8596 87.8489 9.1466 97.4709 8.82964 98.286C8.807 97.5388 8.26364 87.9621 8.26364 87.9621C7.94668 83.1624 3.5545 80.2418 0 80.2418L4.30162 106.346C9.75789 106.323 12.7011 102.633 14.2406 98.7161C14.2406 98.7161 17.5234 90.2261 17.6593 89.8412C17.6819 90.2034 20.0139 106.346 20.0139 106.346C25.4928 106.346 28.436 102.882 30.0208 99.101L37.6958 80.2418C32.2848 80.2418 29.4321 83.9321 27.9605 87.8715ZM79.1951 79.6305C75.8217 79.6305 73.2408 81.4644 71.0673 84.1585V84.1359L73.0144 68.4463C68.5316 68.4463 64.8866 72.3404 64.1847 78.1363L60.7887 106.142C63.3697 106.142 66.1091 105.395 67.5807 103.493C68.8938 105.191 70.8635 106.55 73.7841 106.55C81.3459 106.55 86.5305 97.7652 86.5305 89.5242C86.4852 82.0077 82.8402 79.6305 79.1951 79.6305ZM78.4933 93.1014C77.7009 97.6973 75.1425 100.822 72.6747 100.822C70.1843 100.822 69.1203 99.7123 69.1203 99.7123C69.5957 95.6824 69.89 93.2146 70.7956 91.0864C71.7012 88.9582 73.852 85.5622 76.0934 85.5622C78.2895 85.5622 79.2857 88.4828 78.4933 93.1014ZM105.412 80.2418H100.137L100.16 79.9701C100.522 76.5288 101.337 74.7176 104.031 74.4233C105.865 74.2422 106.68 73.2913 106.884 72.2498C107.042 71.4348 107.541 68.6048 107.541 68.6048C96.9449 68.5368 93.6169 73.1102 92.7565 80.0833L92.7339 80.2418H92.6207C90.9 80.2418 88.9983 82.1888 88.6813 84.6566L88.5681 85.5622H92.1L89.1341 110.059L88.2285 114.451C88.3417 114.451 88.4775 114.474 88.5907 114.474C93.5489 114.293 96.7185 110.376 97.4204 104.693L99.7297 85.5622H101.382C103.012 85.5622 104.914 83.9321 105.254 81.2153L105.412 80.2418ZM132.852 79.789C126.762 79.789 121.011 84.2717 119.245 91.3128C117.48 98.3539 120.151 106.685 129.117 106.685C138.059 106.685 143.221 98.0143 143.221 90.7921C143.221 83.6152 138.354 79.789 132.852 79.789ZM135.32 92.875C135.003 96.0672 133.599 100.912 129.75 100.912C125.879 100.912 126.422 95.2522 126.807 92.558C127.215 89.6827 128.822 85.5849 132.286 85.5849C135.388 85.5849 135.682 89.2752 135.32 92.875ZM173.31 87.8715C173.31 87.8715 170.254 97.4709 170.005 98.2633C169.914 97.4483 167.673 80.2192 167.673 80.2192C162.465 80.2192 159.681 83.9321 158.209 87.8489C158.209 87.8489 154.496 97.4709 154.179 98.286C154.157 97.5388 153.613 87.9621 153.613 87.9621C153.296 83.1624 148.904 80.2418 145.349 80.2418L149.628 106.346C155.085 106.323 158.028 102.633 159.567 98.7161C159.567 98.7161 162.85 90.2261 162.964 89.8412C162.986 90.2034 165.318 106.346 165.318 106.346C170.797 106.346 173.74 102.882 175.325 99.101L183 80.2418C177.612 80.2418 174.759 83.9321 173.31 87.8715ZM110.393 68.6048L105.956 104.399L105.05 108.814C105.163 108.814 105.299 108.836 105.412 108.836C110.189 108.768 113.585 104.58 114.219 99.3048L116.778 78.7702C117.547 72.4989 113.812 68.6048 110.393 68.6048Z" fill="#393939"/>
</svg>
