<?xml version="1.0" encoding="UTF-8"?>
<svg enable-background="new 0 0 87.607 87.607" version="1.1" 
viewBox="0 0 87.607 87.607" xml:space="preserve" 
xmlns="http://www.w3.org/2000/svg">
<rect width="100%" height="100%" fill="none"/>
<g class="currentLayer" style=""><title>Layer 1</title>
	<g class="selected">
			<path 
			d="m34.096 61.265c0.025447-0.3493 0.11088-0.6986 
			0.25993-1.0309l18.752-41.336c0.55348-1.2146 
			1.8022-1.7879 2.9346-1.3452 1.1342 0.4491 1.8113 1.7773 
			1.5959 3.132l-7.3079 45.837c-0.057256 0.36416-0.17813 
			0.6901-0.34263 0.98738-0.070889 0.39177-0.15723 
			0.78141-0.27265 1.1721-1.1769 3.9219-4.3969 6.5655-8.0095 
			6.5655-0.93337 0-1.8613-0.17624-2.7483-0.52766-2.1394
			-0.84086-3.8653-2.5884-4.8595-4.922-0.99517-2.3336
			-1.1369-4.9687-0.40352-7.4255 0.11179-0.3854 0.24993
			-0.75168 0.4017-1.1063zm7.6069-40.709c1.3369 0 2.4193 
			1.2422 2.4193 2.7742 0 1.532-1.0824 2.7753-2.4193 
			2.7753-19.284 0-34.968 18.007-34.968 40.139 0 1.531-1.0861 
			2.7742-2.4211 2.7742-1.3387 0-2.4211-1.2432-2.4211-2.7742 
			0.0018177-25.196 17.859-45.688 39.81-45.688zm25.017 
			10.143c9.4 8.7261 14.792 21.68 14.792 35.544 0 1.532-1.0824 
			2.7763-2.4202 2.7763-1.3396 0-2.422-1.2443-2.422-2.7763 
			0-12.178-4.7359-23.558-12.994-31.223-1.0415-0.96402-1.1997
			-2.7137-0.36081-3.906 0.83885-1.1912 2.363-1.3781 3.4054-0.41406z" 
			fill="#fff"/>
	</g>
</g></svg>
