<?xml version="1.0" encoding="iso-8859-1"?>
<!-- Generator: Adobe Illustrator 19.0.0, SVG Export Plug-In . SVG Version: 6.00 Build 0)  -->
<svg version="1.1" id="Capa_1" xmlns="http://www.w3.org/2000/svg" xmlns:xlink="http://www.w3.org/1999/xlink" x="0px" y="0px"
	 viewBox="0 0 512 512" style="enable-background:new 0 0 512 512;" xml:space="preserve">
<g>
	<g>
		<g>
			<path style="fill:#fff" d="M374.031,241.75c-6.671-54.43-49.629-97.28-104.076-103.813c-4.688-0.535-9.402-0.803-14.121-0.804
				c-48.118,0.074-91.444,29.154-109.742,73.657c-18.298,44.503-7.957,95.649,26.193,129.548c18.16,17.391,28.56,41.357,28.857,66.5
				v13.733h109.714v-13.804c0.083-24.667,10.118-48.256,27.831-65.424c26.754-25.813,39.84-62.686,35.343-99.589V241.75z"/>
			<path style="fill:#fff" d="M256,512c11.62-0.013,21.975-7.335,25.862-18.286h-51.723C234.025,504.665,244.38,511.987,256,512z"/>
			<path style="fill:#fff" d="M210.286,466.286c0.007,5.047,4.096,9.136,9.143,9.143h73.143c5.047-0.007,9.136-4.096,9.143-9.143v-27.429h-91.429
				V466.286z"/>
		</g>
	</g>
</g>
<g>
</g>
<g>
</g>
<g>
</g>
<g>
</g>
<g>
</g>
<g>
</g>
<g>
</g>
<g>
</g>
<g>
</g>
<g>
</g>
<g>
</g>
<g>
</g>
<g>
</g>
<g>
</g>
<g>
</g>
</svg>
